<svg width="100" height="100" viewBox="0 0 100 100" fill="none" xmlns="http://www.w3.org/2000/svg">
<path d="M82.5349 0H17.4651C7.8194 0 0 7.8194 0 17.4651V82.5349C0 92.1806 7.8194 100 17.4651 100H82.5349C92.1806 100 100 92.1806 100 82.5349V17.4651C100 7.8194 92.1806 0 82.5349 0Z" fill="#0059FF"/>
<path d="M57.0244 27.9941C54.8598 24.2153 50.0496 22.9289 46.2816 25.0997C42.5136 27.2705 41.2309 32.0944 43.3955 35.8731L64.3197 72.2133C66.4848 75.9921 71.2947 77.2784 75.0628 75.1077C78.831 72.937 80.1133 68.113 77.9489 64.3343L57.0244 27.9941Z" fill="url(#paint0_linear_627_23790)"/>
<path d="M64.5868 41.3393C57.5586 37.641 52.8552 42.7329 50.7976 45.8148C50.4769 46.2972 50.1562 46.8064 49.889 47.3156C49.7553 47.5836 49.6751 47.7712 49.6217 47.8248L46.9226 52.5415L35.6721 72.0784C35.1644 72.9628 34.4696 73.7668 33.6412 74.3832C32.8127 74.9996 31.8774 75.482 30.8887 75.75C28.8844 76.2859 26.7465 76.018 24.9293 74.9728C23.1389 73.9276 21.8027 72.2124 21.2682 70.2025C20.7338 68.1925 21.001 66.0485 22.0432 64.2262L41.4711 30.4587L42.9141 27.9395C43.6089 26.7336 44.5977 25.742 45.7735 25.0452C46.9761 24.3484 48.3123 24 49.7019 24H49.9958C51.3855 24 52.7216 24.3752 53.9241 25.0452C55.1267 25.742 56.1155 26.7336 56.8103 27.9395L64.5868 41.3393Z" fill="white"/>
<defs>
<linearGradient id="paint0_linear_627_23790" x1="72.8112" y1="70.7793" x2="55.0108" y2="40.6161" gradientUnits="userSpaceOnUse">
<stop stop-color="white"/>
<stop offset="1" stop-color="white" stop-opacity="0"/>
</linearGradient>
</defs>
</svg>
